Coordinates
version=1
nRows=12
nColumns=19
inDegrees=yes

Units are S.I. units (second, meters, Newtons, ...)
If the header above contains a line with 'inDegrees', this indicates whether rotational values are in degrees (yes) or radians (no).

endheader
time	pelvis_tilt	pelvis_list	pelvis_rotation	pelvis_tx	pelvis_ty	pelvis_tz	hip_flexion_r	hip_adduction_r	hip_rotation_r	knee_angle_r	knee_angle_r_beta	ankle_angle_r	hip_flexion_l	hip_adduction_l	hip_rotation_l	knee_angle_l	knee_angle_l_beta	ankle_angle_l
     11.74666667	      0.78262245	     -9.75291431	     -0.43736171	      2.46047862	      0.92799126	      0.96217278	     24.75234081	     13.89302169	    -18.45169470	     10.59957731	      0.18499752	      6.73441530	    -22.23342531	    -15.46773512	    -13.85566168	     74.62640306	      1.30247644	    -13.34839550
     11.75333333	      1.90920619	    -10.64172492	     -0.57227226	      2.45931598	      0.92444641	      0.96231625	     23.62641340	     14.56504072	    -19.80284791	     13.13282301	      0.22921100	      6.49492429	    -21.85582930	    -16.60582366	    -13.54140092	     78.84889590	      1.37617285	    -12.71374360
     11.76000000	      2.46437887	    -11.45594581	     -0.72349556	      2.45798710	      0.91990258	      0.96224896	     23.23013168	     14.98647729	    -21.25023458	     16.22725006	      0.28321894	      6.31799177	    -20.66466648	    -17.68312502	    -12.98546509	     83.10711032	      1.45049271	    -11.97439293
     11.76666667	      3.51276912	    -12.50603382	     -1.02335700	      2.45646598	      0.91552195	      0.96209382	     22.22134148	     15.68172140	    -22.37135301	     19.41089259	      0.33878399	      6.23029905	    -20.12841309	    -18.97133207	    -12.84502241	     87.11184675	      1.52038854	    -11.13202937
     11.77333333	      3.76027589	    -13.31277753	     -1.32219976	      2.45475796	      0.91027642	      0.96168194	     22.08876479	     16.00048489	    -23.39014156	     22.87650936	      0.39927041	      6.39326132	    -18.39770185	    -19.96597920	    -12.15363823	     91.14493892	      1.59077928	    -10.24216958
     11.78000000	      4.17040479	    -14.18390316	     -1.73443939	      2.45280366	      0.90521994	      0.96121221	     21.65835418	     16.44387478	    -24.01404129	     26.28775236	      0.45880783	      6.86881850	    -16.82706047	    -20.99215373	    -11.58498341	     94.94169033	      1.65704509	     -9.29430793
     11.78666667	      4.32109678	    -14.91976340	     -2.28838606	      2.45057442	      0.90016085	      0.96075540	     21.39207734	     16.81470236	    -24.22133245	     29.65819563	      0.51763316	      7.75700394	    -14.82209315	    -21.81665522	    -10.88866032	     98.56039397	      1.72020339	     -8.35221424
     11.79333333	      4.96744966	    -15.75234799	     -2.88608519	      2.44815460	      0.89600766	      0.96027808	     20.36734247	     17.41771104	    -23.94323190	     32.72705159	      0.57119480	      9.12003404	    -13.37412722	    -22.71166553	    -10.36656645	    101.80365086	      1.77680890	     -7.44312909
     11.80000000	      4.00349904	    -15.82453283	     -3.56384768	      2.44522223	      0.89087345	      0.95988203	     21.08604721	     17.22841723	    -23.56225118	     35.90252466	      0.62661727	     10.79681201	     -9.46415930	    -22.73704601	     -8.83905337	    105.11735286	      1.83464391	     -6.67943825
     11.80666667	      3.51677438	    -15.94111399	     -4.25193997	      2.44214030	      0.88683627	      0.95958429	     21.01438049	     17.25471092	    -22.75435770	     38.62678041	      0.67416450	     12.81751074	     -6.05668524	    -22.79206158	     -7.49945443	    107.98095199	      1.88462314	     -5.98613382
     11.81333333	      2.91085320	    -15.78005832	     -4.84487338	      2.43883131	      0.88342633	      0.95930706	     20.87557734	     17.07110761	    -21.77074149	     40.99400682	      0.71548039	     15.06518719	     -2.23063032	    -22.50304328	     -5.91305089	    110.49355649	      1.92847636	     -5.41855415
     11.82000000	      2.18657769	    -15.40277580	     -5.33816210	      2.43549430	      0.88061882	      0.95907693	     20.62582561	     16.73597644	    -20.67177835	     42.93233879	      0.74931067	     17.45038763	      1.94149684	    -21.94141918	     -4.18705403	    112.60043052	      1.96524825	     -4.97665953
